<svg xmlns="http://www.w3.org/2000/svg" width="1000" height="300" viewBox="0 0 1000 300" font-family="ui-monospace,SFMono-Regular,'SF Mono',Menlo,Consolas,'Liberation Mono',monospace" role="img" aria-label="Wringer roadmap — 17 of 19 milestones shipped">
  <rect width="100%" height="100%" rx="10" fill="#11141a"/>
  <text x="40" y="46" fill="#7d8590" font-size="12">Jul 29</text>
  <text x="960" y="46" fill="#7d8590" font-size="12" text-anchor="end">Sep 30 — deadline</text>
  <rect x="40" y="58" width="920" height="6" rx="3" fill="#2b313b"/>
  <rect x="40" y="58" width="190" height="6" rx="3" fill="#58a6ff"/>
  <text x="230" y="84" fill="#58a6ff" font-size="12">today · day 14 of 63</text>
  <text x="960" y="84" fill="#7d8590" font-size="12" text-anchor="end">50 days remaining</text>
  <line x1="40" y1="176" x2="960" y2="176" stroke="#2b313b" stroke-width="3"/>
  <line x1="40" y1="176" x2="858" y2="176" stroke="#3fb950" stroke-width="3"/>
  <text x="40" y="150" fill="#d7dae0" font-size="13" font-weight="600" text-anchor="middle">v0.1</text>
  <circle cx="40" cy="176" r="11" fill="#3fb950"/>
  <text x="40" y="180" fill="#11141a" font-size="12" font-weight="700" text-anchor="middle">✓</text>
  <text x="40" y="206" fill="#7d8590" font-size="11" text-anchor="middle">verify</text>
  <text x="91" y="150" fill="#d7dae0" font-size="13" font-weight="600" text-anchor="middle">v0.2</text>
  <circle cx="91" cy="176" r="11" fill="#3fb950"/>
  <text x="91" y="180" fill="#11141a" font-size="12" font-weight="700" text-anchor="middle">✓</text>
  <text x="91" y="206" fill="#7d8590" font-size="11" text-anchor="middle">loop+fleet</text>
  <text x="142" y="150" fill="#d7dae0" font-size="13" font-weight="600" text-anchor="middle">ship</text>
  <circle cx="142" cy="176" r="11" fill="#3fb950"/>
  <text x="142" y="180" fill="#11141a" font-size="12" font-weight="700" text-anchor="middle">✓</text>
  <text x="142" y="206" fill="#7d8590" font-size="11" text-anchor="middle">PyPI+tag</text>
  <text x="193" y="150" fill="#d7dae0" font-size="13" font-weight="600" text-anchor="middle">P0</text>
  <circle cx="193" cy="176" r="11" fill="#3fb950"/>
  <text x="193" y="180" fill="#11141a" font-size="12" font-weight="700" text-anchor="middle">✓</text>
  <text x="193" y="206" fill="#7d8590" font-size="11" text-anchor="middle">the box</text>
  <text x="244" y="150" fill="#d7dae0" font-size="13" font-weight="600" text-anchor="middle">P1</text>
  <circle cx="244" cy="176" r="11" fill="#3fb950"/>
  <text x="244" y="180" fill="#11141a" font-size="12" font-weight="700" text-anchor="middle">✓</text>
  <text x="244" y="206" fill="#7d8590" font-size="11" text-anchor="middle">ACP</text>
  <text x="296" y="150" fill="#d7dae0" font-size="13" font-weight="600" text-anchor="middle">P2</text>
  <circle cx="296" cy="176" r="11" fill="#3fb950"/>
  <text x="296" y="180" fill="#11141a" font-size="12" font-weight="700" text-anchor="middle">✓</text>
  <text x="296" y="206" fill="#7d8590" font-size="11" text-anchor="middle">spec/plan</text>
  <text x="347" y="150" fill="#d7dae0" font-size="13" font-weight="600" text-anchor="middle">P3</text>
  <circle cx="347" cy="176" r="11" fill="#3fb950"/>
  <text x="347" y="180" fill="#11141a" font-size="12" font-weight="700" text-anchor="middle">✓</text>
  <text x="347" y="206" fill="#7d8590" font-size="11" text-anchor="middle">issue→MR</text>
  <text x="398" y="150" fill="#d7dae0" font-size="13" font-weight="600" text-anchor="middle">P4</text>
  <circle cx="398" cy="176" r="11" fill="#3fb950"/>
  <text x="398" y="180" fill="#11141a" font-size="12" font-weight="700" text-anchor="middle">✓</text>
  <text x="398" y="206" fill="#7d8590" font-size="11" text-anchor="middle">PM UX</text>
  <text x="449" y="150" fill="#d7dae0" font-size="13" font-weight="600" text-anchor="middle">P5</text>
  <circle cx="449" cy="176" r="11" fill="#3fb950"/>
  <text x="449" y="180" fill="#11141a" font-size="12" font-weight="700" text-anchor="middle">✓</text>
  <text x="449" y="206" fill="#7d8590" font-size="11" text-anchor="middle">attest</text>
  <text x="500" y="150" fill="#d7dae0" font-size="13" font-weight="600" text-anchor="middle">P6</text>
  <circle cx="500" cy="176" r="11" fill="#3fb950"/>
  <text x="500" y="180" fill="#11141a" font-size="12" font-weight="700" text-anchor="middle">✓</text>
  <text x="500" y="206" fill="#7d8590" font-size="11" text-anchor="middle">bench</text>
  <text x="551" y="150" fill="#d7dae0" font-size="13" font-weight="600" text-anchor="middle">P7</text>
  <circle cx="551" cy="176" r="11" fill="#3fb950"/>
  <text x="551" y="180" fill="#11141a" font-size="12" font-weight="700" text-anchor="middle">✓</text>
  <text x="551" y="206" fill="#7d8590" font-size="11" text-anchor="middle">graphs</text>
  <text x="602" y="150" fill="#d7dae0" font-size="13" font-weight="600" text-anchor="middle">P8</text>
  <circle cx="602" cy="176" r="11" fill="#3fb950"/>
  <text x="602" y="180" fill="#11141a" font-size="12" font-weight="700" text-anchor="middle">✓</text>
  <text x="602" y="206" fill="#7d8590" font-size="11" text-anchor="middle">health</text>
  <text x="653" y="150" fill="#d7dae0" font-size="13" font-weight="600" text-anchor="middle">F1</text>
  <circle cx="653" cy="176" r="11" fill="#3fb950"/>
  <text x="653" y="180" fill="#11141a" font-size="12" font-weight="700" text-anchor="middle">✓</text>
  <text x="653" y="206" fill="#7d8590" font-size="11" text-anchor="middle">park≠spend</text>
  <text x="704" y="150" fill="#d7dae0" font-size="13" font-weight="600" text-anchor="middle">F2</text>
  <circle cx="704" cy="176" r="11" fill="#3fb950"/>
  <text x="704" y="180" fill="#11141a" font-size="12" font-weight="700" text-anchor="middle">✓</text>
  <text x="704" y="206" fill="#7d8590" font-size="11" text-anchor="middle">gate authoring</text>
  <text x="756" y="150" fill="#d7dae0" font-size="13" font-weight="600" text-anchor="middle">F3</text>
  <circle cx="756" cy="176" r="11" fill="#3fb950"/>
  <text x="756" y="180" fill="#11141a" font-size="12" font-weight="700" text-anchor="middle">✓</text>
  <text x="756" y="206" fill="#7d8590" font-size="11" text-anchor="middle">brief quality</text>
  <text x="807" y="150" fill="#d7dae0" font-size="13" font-weight="600" text-anchor="middle">F4</text>
  <circle cx="807" cy="176" r="11" fill="#3fb950"/>
  <text x="807" y="180" fill="#11141a" font-size="12" font-weight="700" text-anchor="middle">✓</text>
  <text x="807" y="206" fill="#7d8590" font-size="11" text-anchor="middle">chain proven</text>
  <text x="858" y="150" fill="#d7dae0" font-size="13" font-weight="600" text-anchor="middle">F4b</text>
  <circle cx="858" cy="176" r="11" fill="#3fb950"/>
  <text x="858" y="180" fill="#11141a" font-size="12" font-weight="700" text-anchor="middle">✓</text>
  <text x="858" y="206" fill="#7d8590" font-size="11" text-anchor="middle">at scale</text>
  <text x="909" y="150" fill="#d7dae0" font-size="13" font-weight="600" text-anchor="middle">F6</text>
  <circle cx="909" cy="176" r="10" fill="#11141a" stroke="#7d8590" stroke-width="2"/>
  <text x="909" y="206" fill="#7d8590" font-size="11" text-anchor="middle">env≠repair</text>
  <text x="960" y="150" fill="#d7dae0" font-size="13" font-weight="600" text-anchor="middle">F5</text>
  <circle cx="960" cy="176" r="10" fill="#11141a" stroke="#7d8590" stroke-width="2"/>
  <text x="960" y="206" fill="#7d8590" font-size="11" text-anchor="middle">multi-repo</text>
  <circle cx="46" cy="248" r="6" fill="#3fb950"/>
  <text x="60" y="252" fill="#7d8590" font-size="12">shipped — every command it names is registered and every file it names is committed</text>
  <circle cx="46" cy="272" r="5.5" fill="#11141a" stroke="#7d8590" stroke-width="2"/>
  <text x="60" y="276" fill="#7d8590" font-size="12">remaining — F6, F5</text>
  <text x="960" y="252" fill="#d7dae0" font-size="12" text-anchor="end">17 of 19 milestones</text>
  <text x="960" y="276" fill="#7d8590" font-size="11" text-anchor="end">every node probed against this checkout</text>
</svg>
